<svg width="7" height="21" viewBox="0 0 7 21" fill="none" xmlns="http://www.w3.org/2000/svg">
<path d="M3.4 5.8C2.07452 5.8 1 4.72548 1 3.4C1 2.07452 2.07452 1 3.4 1C4.72548 1 5.8 2.07452 5.8 3.4C5.8 4.72548 4.72548 5.8 3.4 5.8Z" fill="#8D3031"/>
<path d="M3.4 13C2.07452 13 1 11.9255 1 10.6C1 9.27452 2.07452 8.2 3.4 8.2C4.72548 8.2 5.8 9.27452 5.8 10.6C5.8 11.9255 4.72548 13 3.4 13Z" fill="#8D3031"/>
<path d="M3.4 20.2C2.07452 20.2 1 19.1255 1 17.8C1 16.4745 2.07452 15.4 3.4 15.4C4.72548 15.4 5.8 16.4745 5.8 17.8C5.8 19.1255 4.72548 20.2 3.4 20.2Z" fill="#8D3031"/>
<path d="M3.4 5.8C2.07452 5.8 1 4.72548 1 3.4C1 2.07452 2.07452 1 3.4 1C4.72548 1 5.8 2.07452 5.8 3.4C5.8 4.72548 4.72548 5.8 3.4 5.8Z" stroke="#8D3031"/>
<path d="M3.4 13C2.07452 13 1 11.9255 1 10.6C1 9.27452 2.07452 8.2 3.4 8.2C4.72548 8.2 5.8 9.27452 5.8 10.6C5.8 11.9255 4.72548 13 3.4 13Z" stroke="#8D3031"/>
<path d="M3.4 20.2C2.07452 20.2 1 19.1255 1 17.8C1 16.4745 2.07452 15.4 3.4 15.4C4.72548 15.4 5.8 16.4745 5.8 17.8C5.8 19.1255 4.72548 20.2 3.4 20.2Z" stroke="#8D3031"/>
</svg>
